<svg width="48" height="48" viewBox="0 0 48 48" xmlns="http://www.w3.org/2000/svg"><g fill="none" fill-rule="evenodd"><path d="M0 0h48v48H0z"/><path d="M41.25 25.875h-7.5v-9c0-1.2426407-1.0073593-2.25-2.25-2.25s-2.25 1.0073593-2.25 2.25v9h-10.5V16.98c0-.8038476-.4288475-1.5466334-1.125-1.9485572-.6961524-.4019238-1.5538476-.4019238-2.25 0-.6961525.4019238-1.125 1.1447096-1.125 1.9485572v8.895h-7.5c-.8284271 0-1.5.6715729-1.5 1.5v15c0 .8284271.6715729 1.5 1.5 1.5h34.5c.8284271 0 1.5-.6715729 1.5-1.5v-15c0-.8284271-.6715729-1.5-1.5-1.5zm-10.5-9c0-.4142136.3357864-.75.75-.75s.75.3357864.75.75v9h-1.5v-9zm-15 .105c0-.4142136.3357864-.75.75-.75s.75.3357864.75.75v8.895h-1.5V16.98zm25.5 25.395H6.75v-15h34.5v15zM5.25 18h-1.5c.0082672-7.6595239 6.215476-13.8667328 13.875-13.875v1.5C10.7939027 5.6332651 5.2582651 11.1689027 5.25 18z" fill="#FFF" fill-rule="nonzero"/><path d="M10.5 18H9c.0041352-4.761742 3.863258-8.6208648 8.625-8.625v1.5c-3.9333153.0041338-7.1208662 3.1916847-7.125 7.125zm33.75 0h-1.5c-.0082651-6.8310973-5.5439027-12.3667349-12.375-12.375v-1.5C38.0345239 4.1332672 44.2417328 10.3404761 44.25 18z" fill="#FFF" fill-rule="nonzero"/><path d="M39 18h-1.5c-.0041338-3.9333153-3.1916847-7.1208662-7.125-7.125v-1.5C35.136742 9.3791352 38.9958647 13.238258 39 18zM14.595 38.9775V31.95H13.2v-1.2825h2.82v8.31zm5.655.105c-.6635896.0086638-1.3178498-.1568407-1.8975-.48-.5105419-.2911578-.9289566-.7199679-1.2075-1.2375v-.06l1.2075-.6525.0375.06c.1623019.3047342.3998238.5629101.69.75.3601287.2219041.7771497.3339785 1.2.3225 1.1175 0 1.665-.51 1.665-1.56s-.5775-1.5-1.7625-1.5a2.9399992 2.9399992 0 0 0-1.155.225 3.0974987 3.0974987 0 0 0-.8325.525h-.0375l-.195-.105v-4.7025h4.92v1.2675H19.155v1.815c.3900259-.1791296.8159565-.2663684 1.245-.255.7794234-.0291833 1.5408131.2389117 2.13.75.5508763.4984413.8529246 1.2151196.825 1.9575.0447683.7994351-.2685856 1.5773223-.855 2.1225-.6286191.5254558-1.431587.7957883-2.25.7575zM27 39l-1.125-1.59-.4125.4275L25.5 39h-1.08v-5.895h1.08v3.0525a2.8350174 2.8350174 0 0 1 0 .345V36.6l1.3575-1.5H28.05l-1.44 1.6275 1.635 2.25L27 39zm6.75 0v-2.25c0-.5025-.2025-.75-.6375-.75-.435 0-.75.285-.75.8775V39H31.275v-2.25c0-.5025-.2025-.75-.63-.75s-.75.285-.75.8775V39h-1.0875v-3.9525h1.065v.45c.2371769-.3399892.6280187-.5396278 1.0425-.5325.4698271-.0270372.9101254.2300497 1.1175.6525.2899142-.4240285.7766421-.6702223 1.29-.6525.99 0 1.5.5475 1.5 1.635V39H33.75z" fill="#FFF" fill-rule="nonzero"/></g></svg>