<svg id="图层_1" data-name="图层 1" xmlns="http://www.w3.org/2000/svg" viewBox="0 0 64 64"><defs><style>.cls-2{fill:#fff}</style></defs><path fill="none" d="M0 0h64v64H0z"/><path class="cls-2" d="M32 11a20.94 20.94 0 0 1 13.62 5l2-.93a23 23 0 0 0-31.14 0l1.95.93A20.94 20.94 0 0 1 32 11zM18.38 48l-1.95.93a22.92 22.92 0 0 0 31.14 0L45.63 48a21 21 0 0 1-27.25 0zM54 32c0 2.06-1.2 4-3.26 5.67l2 1A9.11 9.11 0 0 0 56 32a9.11 9.11 0 0 0-3.26-6.63l-2 1C52.8 28 54 29.94 54 32zM32 43a38.28 38.28 0 0 1-12-1.84l-2.55 1.24A39 39 0 0 0 32 45a39 39 0 0 0 14.55-2.6L44 41.16A38.28 38.28 0 0 1 32 43zm0-22a38.28 38.28 0 0 1 12 1.84l2.57-1.24A39 39 0 0 0 32 19a39 39 0 0 0-14.55 2.6L20 22.84A38.28 38.28 0 0 1 32 21zM10 32c0-2.06 1.2-4 3.26-5.67l-2-1A9.11 9.11 0 0 0 8 32a9.11 9.11 0 0 0 3.26 6.63l2-1C11.2 36 10 34.06 10 32zm27.27-.38l-10.21-4.25a.4.4 0 0 0-.52.53l1.62 3.87a.39.39 0 0 1 0 .3l-1.64 4a.4.4 0 0 0 .52.52l10.23-4.27a.4.4 0 0 0 0-.7z"/><path class="cls-2" d="M32 60a28 28 0 0 1-19.8-47.8 28 28 0 0 1 39.6 39.6A27.81 27.81 0 0 1 32 60zm0-54a26 26 0 0 0-18.38 44.39 26 26 0 1 0 36.76-36.77A25.79 25.79 0 0 0 32 6z"/></svg>