<svg id="图层_1" data-name="图层 1" xmlns="http://www.w3.org/2000/svg" viewBox="0 0 64 64"><defs><style>.cls-1{fill:none}.cls-2{fill:#fff}</style></defs><path class="cls-1" d="M0 .03h64v64H0z"/><path class="cls-2" d="M32.17 60a26.5 26.5 0 1 1 26.5-26.5A26.53 26.53 0 0 1 32.17 60zm0-51a24.5 24.5 0 1 0 24.5 24.5A24.53 24.53 0 0 0 32.17 9z"/><path class="cls-2" transform="rotate(-34.98 14.005322 8.5297607)" d="M7.9 7.53h12.21v2H7.9z"/><path class="cls-2" transform="rotate(-55.2 49.8520938 8.6541467)" d="M49 2.43h2v12.21h-2z"/><path class="cls-2" d="M27.38 41.68V39h-8.59v-1.61l10.9-12.22v11.9h2V39h-2v2.71zm-.08-11.34a4.42 4.42 0 0 1-.29.44c-.26.36-.5.69-.74 1l-3.44 4.11a8.83 8.83 0 0 1-.76.8l-.41.36.07.18.49-.05a8.58 8.58 0 0 1 1.07-.08h4.09v-5c0-.31 0-.67.06-1.11v-.57h-.2zm8.14 10.81a7.3 7.3 0 0 0 3.77 1 6.31 6.31 0 0 0 4.28-1.44 5 5 0 0 0 1.72-4 4.77 4.77 0 0 0-1.39-3.52 5.5 5.5 0 0 0-3.47-1.52v-.09s.12-.11.27-.27a6 6 0 0 0 .69-.77l3.61-4.67v-.16H34.55v2.15h5.94l.6-.05-.41.38q-.33.34-.54.6l-3.75 4.84.08.16a6.29 6.29 0 0 1 .91-.25 7.21 7.21 0 0 1 1.42-.13c2.6 0 3.92 1.1 3.92 3.27S41.5 40 39.09 40a4.13 4.13 0 0 1-2.45-.73 4.56 4.56 0 0 1-1.45-1.64l-2.07 1.08a5.77 5.77 0 0 0 2.32 2.44z"/><path class="cls-1" d="M.17-.03H64v64.06H.17z"/></svg>