<svg id="图层_1" data-name="图层 1" xmlns="http://www.w3.org/2000/svg" viewBox="0 0 64 64"><defs><style>.cls-2{fill:#fff}</style></defs><path fill="none" d="M0 0h64v64H0z"/><path class="cls-2" d="M14.26 55.13v-8.36H17a3.35 3.35 0 0 1 2.19.67 2.86 2.86 0 0 1 0 4.11 3.35 3.35 0 0 1-2.19.68h-1.27v2.9zm2.68-4.21c1.09 0 1.62-.46 1.62-1.42s-.53-1.42-1.62-1.42h-1.21v2.84zm4.2 4.21v-5.24h1.41v.64a1.67 1.67 0 0 1 2.23-.53h.07l-.47 1.27-.1-.05a1.46 1.46 0 0 0-.61-.16c-.75 0-1.12.48-1.12 1.45v2.55zm7.04.1a2.78 2.78 0 0 1-2-.78 2.72 2.72 0 0 1 0-3.89 3 3 0 0 1 4 0 2.74 2.74 0 0 1 0 3.89 2.78 2.78 0 0 1-2 .78zm0-4.19c-.92 0-1.37.48-1.37 1.47S27.26 54 28.18 54s1.37-.48 1.37-1.48S29.1 51 28.18 51zm8.72 4.09l-1.85-3.07h-1.29v3h-1.48v-8.29h2.84a3.3 3.3 0 0 1 2.17.65 2.45 2.45 0 0 1 .9 2 2.36 2.36 0 0 1-1.62 2.39l2 3.28zm-1.83-4.29c1.08 0 1.61-.45 1.61-1.38s-.53-1.38-1.61-1.38h-1.31v2.76zm7.08 4.39a3 3 0 0 1-2.15-.77 2.55 2.55 0 0 1-.81-2 2.61 2.61 0 0 1 .81-1.9 2.71 2.71 0 0 1 2-.78 2.55 2.55 0 0 1 2.06.89 3.27 3.27 0 0 1 .64 2.25V53h-4a1.32 1.32 0 0 0 1.47 1 2.25 2.25 0 0 0 .82-.15 1.7 1.7 0 0 0 .54-.36l.07-.07.85.89-.07.07a2.81 2.81 0 0 1-.9.61 3.35 3.35 0 0 1-1.33.24zM43.26 52A1.14 1.14 0 0 0 42 51a1.22 1.22 0 0 0-1.34 1zm4.42 3.23a3.18 3.18 0 0 1-1.47-.33 2 2 0 0 1-.87-.76l-.05-.08 1-.68v.08a1.46 1.46 0 0 0 1.28.61c.79 0 .79-.34.79-.45s-.12-.31-1.15-.6a2.9 2.9 0 0 1-1.06-.51 1.41 1.41 0 0 1-.51-1.14 1.45 1.45 0 0 1 .58-1.21 2.16 2.16 0 0 1 1.33-.38 2.5 2.5 0 0 1 1.07.22 2.45 2.45 0 0 1 .75.57l.07.07-.85.84-.07-.08a1.23 1.23 0 0 0-1-.46c-.61 0-.61.27-.61.37s.13.34 1 .57l.6.19a2.65 2.65 0 0 1 .56.3 1.39 1.39 0 0 1 .57 1.19 1.53 1.53 0 0 1-.48 1.19 2.28 2.28 0 0 1-1.48.48z"/><path class="cls-2" d="M58 4H6a2 2 0 0 0-2 2v52a2 2 0 0 0 2 2h52a2 2 0 0 0 2-2V6a2 2 0 0 0-2-2zm0 2v36H6V6zM6 58V44h52v14z"/><path class="cls-2" d="M15.07 16.62L9.79 29.08l-.09.21h2.17l.89-2.24h5l.91 2.24H21l-5.52-12.67zM17 25.17h-3.47l1.26-3.12c.11-.29.25-.68.4-1.17l.05-.17.07.21c.14.46.28.84.4 1.13zm9.88-3.91a3 3 0 0 0-2.51 1.16v-1h-2.1V33.1h2.13v-4.73a2.89 2.89 0 0 0 2.45 1.07 3.37 3.37 0 0 0 2.6-1.16 4.54 4.54 0 0 0 0-5.87 3.42 3.42 0 0 0-2.57-1.15zm1.49 4.08c0 1.48-.65 2.2-2 2.2s-2.05-.72-2.05-2.2.67-2.15 2.05-2.15 2 .7 2 2.15zm8.42-4.08a2.93 2.93 0 0 0-2.5 1.16v-1h-2.11V33.1h2.14v-4.73a2.88 2.88 0 0 0 2.44 1.07 3.39 3.39 0 0 0 2.61-1.16 4.22 4.22 0 0 0 1.08-2.94 4.21 4.21 0 0 0-1.06-2.93 3.41 3.41 0 0 0-2.6-1.15zm1.49 4.08c0 1.48-.65 2.2-2 2.2s-2-.72-2-2.2.67-2.15 2-2.15 2 .7 2 2.15zm3.88-7.78h2.12v11.73h-2.12zM54.21 26a4.81 4.81 0 0 0-1-3.38 3.8 3.8 0 0 0-3.09-1.34 4.11 4.11 0 0 0-3 1.18 3.93 3.93 0 0 0-1.12 2.9 3.87 3.87 0 0 0 1.21 2.93 4.5 4.5 0 0 0 3.2 1.15 5.18 5.18 0 0 0 2-.34 4.21 4.21 0 0 0 1.35-.92l.1-.11-1.27-1.33-.11.11a2.42 2.42 0 0 1-.81.53 3.13 3.13 0 0 1-1.23.23 2 2 0 0 1-2.2-1.49h6zm-6-1.42a1.84 1.84 0 0 1 2-1.49 1.71 1.71 0 0 1 1.87 1.49z"/></svg>